<svg width="48" height="60" viewBox="0 0 48 60" fill="none" xmlns="http://www.w3.org/2000/svg">
<path d="M17.7448 24.4141L30.7689 30.1748L17.6016 59.9439L13.5853 52.0499L4.57756 54.1833L17.7448 24.4141Z" fill="url(#paint0_linear_3505_14)"/>
<path d="M17.2928 30.4766L30.18 24.4159L44.033 53.8722L35.4386 51.7315L31.1459 59.9329L17.2928 30.4766Z" fill="url(#paint1_linear_3505_14)"/>
<path d="M20.8312 4.898C22.2535 2.63146 25.5561 2.63146 26.9784 4.898V4.898C27.9535 6.45176 29.9347 7.03351 31.595 6.25354V6.25354C34.0169 5.11576 36.7952 6.90129 36.7664 9.57699V9.57699C36.7466 11.4112 38.0988 12.9718 39.9172 13.2132V13.2132C42.5697 13.5655 43.9417 16.5696 42.4708 18.805V18.805C41.4625 20.3373 41.7564 22.3812 43.1556 23.5674V23.5674C45.1966 25.2978 44.7266 28.5668 42.2807 29.6521V29.6521C40.604 30.3961 39.7462 32.2744 40.282 34.0287V34.0287C41.0635 36.5879 38.9008 39.0839 36.2564 38.6745V38.6745C34.4436 38.3939 32.7065 39.5102 32.2088 41.2758V41.2758C31.4826 43.8512 28.3138 44.7817 26.3105 43.0076V43.0076C24.9373 41.7915 22.8724 41.7915 21.4991 43.0076V43.0076C19.4958 44.7817 16.327 43.8512 15.6009 41.2758V41.2758C15.1031 39.5102 13.366 38.3939 11.5532 38.6745V38.6745C8.90886 39.0839 6.74611 36.5879 7.52763 34.0287V34.0287C8.06338 32.2744 7.20559 30.3961 5.52888 29.6521V29.6521C3.083 28.5668 2.61299 25.2978 4.65404 23.5674V23.5674C6.05323 22.3812 6.34709 20.3373 5.33878 18.805V18.805C3.86791 16.5696 5.23987 13.5655 7.89244 13.2132V13.2132C9.71083 12.9718 11.063 11.4112 11.0433 9.57699V9.57699C11.0144 6.90129 13.7927 5.11576 16.2146 6.25354V6.25354C17.8749 7.03351 19.8562 6.45176 20.8312 4.898V4.898Z" fill="#FFCE22"/>
<circle cx="23.9048" cy="23.9028" r="12.7153" fill="white"/>
<path d="M22.7235 24.33L19.8523 21.84L17.8014 23.8557L22.7235 28.4801L30.5167 20.9507L28.4073 18.8164L22.7235 24.33Z" fill="#00B031"/>
<defs>
<linearGradient id="paint0_linear_3505_14" x1="24.2569" y1="27.2944" x2="11.0896" y2="57.0636" gradientUnits="userSpaceOnUse">
<stop stop-color="#92C020"/>
<stop offset="1" stop-color="#0C9136"/>
</linearGradient>
<linearGradient id="paint1_linear_3505_14" x1="23.7364" y1="27.4462" x2="37.5895" y2="56.9025" gradientUnits="userSpaceOnUse">
<stop stop-color="#92C020"/>
<stop offset="1" stop-color="#0C9136"/>
</linearGradient>
</defs>
</svg>
